<svg id="visual" viewBox="0 0 900 600" width="900" height="600" xmlns="http://www.w3.org/2000/svg" xmlns:xlink="http://www.w3.org/1999/xlink" version="1.1"><rect x="0" y="0" width="900" height="600" fill="#ffffff"></rect><defs><linearGradient id="grad1_0" x1="33.3%" y1="100%" x2="100%" y2="0%"><stop offset="20%" stop-color="#2e3192" stop-opacity="1"></stop><stop offset="80%" stop-color="#2e3192" stop-opacity="1"></stop></linearGradient></defs><defs><linearGradient id="grad1_1" x1="33.3%" y1="100%" x2="100%" y2="0%"><stop offset="20%" stop-color="#2e3192" stop-opacity="1"></stop><stop offset="80%" stop-color="#9d92c9" stop-opacity="1"></stop></linearGradient></defs><defs><linearGradient id="grad1_2" x1="33.3%" y1="100%" x2="100%" y2="0%"><stop offset="20%" stop-color="#ffffff" stop-opacity="1"></stop><stop offset="80%" stop-color="#9d92c9" stop-opacity="1"></stop></linearGradient></defs><defs><linearGradient id="grad2_0" x1="0%" y1="100%" x2="66.7%" y2="0%"><stop offset="20%" stop-color="#2e3192" stop-opacity="1"></stop><stop offset="80%" stop-color="#2e3192" stop-opacity="1"></stop></linearGradient></defs><defs><linearGradient id="grad2_1" x1="0%" y1="100%" x2="66.7%" y2="0%"><stop offset="20%" stop-color="#9d92c9" stop-opacity="1"></stop><stop offset="80%" stop-color="#2e3192" stop-opacity="1"></stop></linearGradient></defs><defs><linearGradient id="grad2_2" x1="0%" y1="100%" x2="66.7%" y2="0%"><stop offset="20%" stop-color="#9d92c9" stop-opacity="1"></stop><stop offset="80%" stop-color="#ffffff" stop-opacity="1"></stop></linearGradient></defs><g transform="translate(900, 600)"><path d="M-297.5 0C-278.4 -32.9 -259.3 -65.8 -247.6 -102.6C-235.9 -139.3 -231.5 -180 -210.3 -210.3C-189.1 -240.7 -151.1 -260.7 -113.3 -273.5C-75.4 -286.3 -37.7 -291.9 0 -297.5L0 0Z" fill="#cec7e4"></path><path d="M-198.3 0C-185.6 -21.9 -172.9 -43.9 -165.1 -68.4C-157.3 -92.9 -154.3 -120 -140.2 -140.2C-126.1 -160.4 -100.8 -173.8 -75.5 -182.3C-50.3 -190.8 -25.1 -194.6 0 -198.3L0 0Z" fill="#6a5fad"></path><path d="M-99.2 0C-92.8 -11 -86.4 -21.9 -82.5 -34.2C-78.6 -46.4 -77.2 -60 -70.1 -70.1C-63 -80.2 -50.4 -86.9 -37.8 -91.2C-25.1 -95.4 -12.6 -97.3 0 -99.2L0 0Z" fill="#2e3192"></path></g><g transform="translate(0, 0)"><path d="M297.5 0C281.9 36.1 266.3 72.2 248.5 102.9C230.8 133.6 210.8 158.9 189.5 189.5C168.2 220.1 145.6 255.9 113.8 274.8C82 293.7 41 295.6 0 297.5L0 0Z" fill="#cec7e4"></path><path d="M198.3 0C187.9 24.1 177.5 48.2 165.7 68.6C153.8 89.1 140.5 106 126.3 126.3C112.2 146.7 97.1 170.6 75.9 183.2C54.7 195.8 27.3 197 0 198.3L0 0Z" fill="#6a5fad"></path><path d="M99.2 0C94 12 88.8 24.1 82.8 34.3C76.9 44.5 70.3 53 63.2 63.2C56.1 73.4 48.5 85.3 37.9 91.6C27.3 97.9 13.7 98.5 0 99.2L0 0Z" fill="#2e3192"></path></g></svg>