<?xml version="1.0" standalone="no"?>
<svg xmlns:xlink="http://www.w3.org/1999/xlink" id="wave" style="transform:rotate(180deg); transition: 0.3s" viewBox="0 0 1440 490" version="1.1" xmlns="http://www.w3.org/2000/svg"><defs><linearGradient id="sw-gradient-0" x1="0" x2="0" y1="1" y2="0"><stop stop-color="rgba(90, 90, 181, 1)" offset="0%"/><stop stop-color="rgba(154, 100, 224, 1)" offset="100%"/></linearGradient></defs><path style="transform:translate(0, 0px); opacity:1" fill="url(#sw-gradient-0)" d="M0,441L48,416.5C96,392,192,343,288,343C384,343,480,392,576,359.3C672,327,768,212,864,212.3C960,212,1056,327,1152,359.3C1248,392,1344,343,1440,310.3C1536,278,1632,261,1728,277.7C1824,294,1920,343,2016,310.3C2112,278,2208,163,2304,114.3C2400,65,2496,82,2592,138.8C2688,196,2784,294,2880,318.5C2976,343,3072,294,3168,294C3264,294,3360,343,3456,367.5C3552,392,3648,392,3744,359.3C3840,327,3936,261,4032,261.3C4128,261,4224,327,4320,302.2C4416,278,4512,163,4608,155.2C4704,147,4800,245,4896,269.5C4992,294,5088,245,5184,220.5C5280,196,5376,196,5472,228.7C5568,261,5664,327,5760,359.3C5856,392,5952,392,6048,351.2C6144,310,6240,229,6336,212.3C6432,196,6528,245,6624,253.2C6720,261,6816,229,6864,212.3L6912,196L6912,490L6864,490C6816,490,6720,490,6624,490C6528,490,6432,490,6336,490C6240,490,6144,490,6048,490C5952,490,5856,490,5760,490C5664,490,5568,490,5472,490C5376,490,5280,490,5184,490C5088,490,4992,490,4896,490C4800,490,4704,490,4608,490C4512,490,4416,490,4320,490C4224,490,4128,490,4032,490C3936,490,3840,490,3744,490C3648,490,3552,490,3456,490C3360,490,3264,490,3168,490C3072,490,2976,490,2880,490C2784,490,2688,490,2592,490C2496,490,2400,490,2304,490C2208,490,2112,490,2016,490C1920,490,1824,490,1728,490C1632,490,1536,490,1440,490C1344,490,1248,490,1152,490C1056,490,960,490,864,490C768,490,672,490,576,490C480,490,384,490,288,490C192,490,96,490,48,490L0,490Z"/><defs><linearGradient id="sw-gradient-1" x1="0" x2="0" y1="1" y2="0"><stop stop-color="rgba(92, 68, 206, 1)" offset="0%"/><stop stop-color="rgba(90, 90, 181, 1)" offset="100%"/></linearGradient></defs><path style="transform:translate(0, 50px); opacity:0.9" fill="url(#sw-gradient-1)" d="M0,294L48,245C96,196,192,98,288,73.5C384,49,480,98,576,147C672,196,768,245,864,285.8C960,327,1056,359,1152,383.8C1248,408,1344,425,1440,392C1536,359,1632,278,1728,245C1824,212,1920,229,2016,253.2C2112,278,2208,310,2304,318.5C2400,327,2496,310,2592,277.7C2688,245,2784,196,2880,163.3C2976,131,3072,114,3168,155.2C3264,196,3360,294,3456,326.7C3552,359,3648,327,3744,302.2C3840,278,3936,261,4032,277.7C4128,294,4224,343,4320,310.3C4416,278,4512,163,4608,114.3C4704,65,4800,82,4896,73.5C4992,65,5088,33,5184,57.2C5280,82,5376,163,5472,163.3C5568,163,5664,82,5760,106.2C5856,131,5952,261,6048,318.5C6144,376,6240,359,6336,326.7C6432,294,6528,245,6624,245C6720,245,6816,294,6864,318.5L6912,343L6912,490L6864,490C6816,490,6720,490,6624,490C6528,490,6432,490,6336,490C6240,490,6144,490,6048,490C5952,490,5856,490,5760,490C5664,490,5568,490,5472,490C5376,490,5280,490,5184,490C5088,490,4992,490,4896,490C4800,490,4704,490,4608,490C4512,490,4416,490,4320,490C4224,490,4128,490,4032,490C3936,490,3840,490,3744,490C3648,490,3552,490,3456,490C3360,490,3264,490,3168,490C3072,490,2976,490,2880,490C2784,490,2688,490,2592,490C2496,490,2400,490,2304,490C2208,490,2112,490,2016,490C1920,490,1824,490,1728,490C1632,490,1536,490,1440,490C1344,490,1248,490,1152,490C1056,490,960,490,864,490C768,490,672,490,576,490C480,490,384,490,288,490C192,490,96,490,48,490L0,490Z"/></svg>